<svg xmlns="http://www.w3.org/2000/svg" xmlns:xlink="http://www.w3.org/1999/xlink" width="2000" zoomAndPan="magnify" viewBox="0 0 1500 1499.999933" height="2000" preserveAspectRatio="xMidYMid meet" version="1.0"><defs><g/><clipPath id="1f8e197d06"><rect x="0" width="1483" y="0" height="547"/></clipPath><clipPath id="d744c8e174"><path d="M 29.09375 898.574219 L 728.84375 898.574219 L 728.84375 974.324219 L 29.09375 974.324219 Z M 29.09375 898.574219 " clip-rule="nonzero"/></clipPath></defs><rect x="-150" width="1800" fill="#ffffff" y="-149.999993" height="1799.99992" fill-opacity="1"/><rect x="-150" width="1800" fill="#ffffff" y="-149.999993" height="1799.99992" fill-opacity="1"/><g transform="matrix(1, 0, 0, 1, 0, 422)"><g clip-path="url(#1f8e197d06)"><g fill="#333333" fill-opacity="1"><g transform="translate(-17.863257, 428.537696)"><g><path d="M 256.28125 0 L 222.96875 0 L 222.96875 -135 L 72.5 -135 L 72.5 0 L 39.1875 0 L 39.1875 -286.453125 L 72.5 -286.453125 L 72.5 -164.390625 L 222.96875 -164.390625 L 222.96875 -286.453125 L 256.28125 -286.453125 Z M 256.28125 0 "/></g></g><g transform="translate(277.994026, 428.537696)"><g><path d="M 114.625 -218.265625 C 140.21875 -218.265625 159.21875 -212.515625 171.625 -201.015625 C 184.039062 -189.523438 190.25 -171.175781 190.25 -145.96875 L 190.25 0 L 166.546875 0 L 160.265625 -31.734375 L 158.703125 -31.734375 C 152.691406 -23.898438 146.421875 -17.335938 139.890625 -12.046875 C 133.359375 -6.753906 125.816406 -2.769531 117.265625 -0.09375 C 108.710938 2.582031 98.226562 3.921875 85.8125 3.921875 C 72.75 3.921875 61.15625 1.632812 51.03125 -2.9375 C 40.914062 -7.507812 32.953125 -14.429688 27.140625 -23.703125 C 21.328125 -32.984375 18.421875 -44.738281 18.421875 -58.96875 C 18.421875 -80.394531 26.910156 -96.851562 43.890625 -108.34375 C 60.867188 -119.84375 86.734375 -126.113281 121.484375 -127.15625 L 158.5 -128.71875 L 158.5 -141.859375 C 158.5 -160.398438 154.515625 -173.394531 146.546875 -180.84375 C 138.585938 -188.289062 127.359375 -192.015625 112.859375 -192.015625 C 101.617188 -192.015625 90.90625 -190.378906 80.71875 -187.109375 C 70.53125 -183.847656 60.863281 -179.992188 51.71875 -175.546875 L 41.734375 -200.234375 C 51.398438 -205.203125 62.5 -209.445312 75.03125 -212.96875 C 87.570312 -216.5 100.769531 -218.265625 114.625 -218.265625 Z M 158.109375 -105.796875 L 125.390625 -104.4375 C 98.617188 -103.382812 79.742188 -99.003906 68.765625 -91.296875 C 57.796875 -83.597656 52.3125 -72.691406 52.3125 -58.578125 C 52.3125 -46.304688 56.035156 -37.226562 63.484375 -31.34375 C 70.929688 -25.46875 80.789062 -22.53125 93.0625 -22.53125 C 112.132812 -22.53125 127.742188 -27.816406 139.890625 -38.390625 C 152.035156 -48.972656 158.109375 -64.847656 158.109375 -86.015625 Z M 158.109375 -105.796875 "/></g></g><g transform="translate(500.964613, 428.537696)"><g><path d="M 81.5 0 L 0 -214.734375 L 34.875 -214.734375 L 82.09375 -84.84375 C 85.363281 -75.957031 88.695312 -66.15625 92.09375 -55.4375 C 95.488281 -44.726562 97.835938 -36.109375 99.140625 -29.578125 L 100.515625 -29.578125 C 102.078125 -36.109375 104.6875 -44.757812 108.34375 -55.53125 C 112 -66.3125 115.332031 -76.082031 118.34375 -84.84375 L 165.5625 -214.734375 L 200.4375 -214.734375 L 118.734375 0 Z M 81.5 0 "/></g></g></g><g fill="#333333" fill-opacity="1"><g transform="translate(701.403024, 428.537696)"><g><path d="M 116.96875 -218.65625 C 135.257812 -218.65625 150.9375 -214.601562 164 -206.5 C 177.0625 -198.40625 187.050781 -187.078125 193.96875 -172.515625 C 200.894531 -157.953125 204.359375 -140.941406 204.359375 -121.484375 L 204.359375 -101.296875 L 56.03125 -101.296875 C 56.425781 -76.085938 62.695312 -56.882812 74.84375 -43.6875 C 86.988281 -30.5 104.097656 -23.90625 126.171875 -23.90625 C 139.765625 -23.90625 151.785156 -25.144531 162.234375 -27.625 C 172.679688 -30.101562 183.519531 -33.757812 194.75 -38.59375 L 194.75 -10 C 183.914062 -5.164062 173.175781 -1.640625 162.53125 0.578125 C 151.882812 2.804688 139.3125 3.921875 124.8125 3.921875 C 104.164062 3.921875 86.171875 -0.289062 70.828125 -8.71875 C 55.484375 -17.144531 43.566406 -29.519531 35.078125 -45.84375 C 26.585938 -62.175781 22.34375 -82.160156 22.34375 -105.796875 C 22.34375 -128.921875 26.226562 -148.941406 34 -165.859375 C 41.769531 -182.773438 52.738281 -195.800781 66.90625 -204.9375 C 81.082031 -214.082031 97.769531 -218.65625 116.96875 -218.65625 Z M 116.578125 -192.015625 C 99.203125 -192.015625 85.351562 -186.332031 75.03125 -174.96875 C 64.71875 -163.601562 58.582031 -147.734375 56.625 -127.359375 L 170.265625 -127.359375 C 170.128906 -140.160156 168.132812 -151.425781 164.28125 -161.15625 C 160.425781 -170.882812 154.582031 -178.457031 146.75 -183.875 C 138.914062 -189.300781 128.859375 -192.015625 116.578125 -192.015625 Z M 116.578125 -192.015625 "/></g></g><g transform="translate(926.724797, 428.537696)"><g><path d="M 135.96875 -218.65625 C 161.445312 -218.65625 180.71875 -212.414062 193.78125 -199.9375 C 206.84375 -187.46875 213.375 -167.453125 213.375 -139.890625 L 213.375 0 L 181.234375 0 L 181.234375 -137.734375 C 181.234375 -155.628906 177.148438 -169.019531 168.984375 -177.90625 C 160.828125 -186.789062 148.320312 -191.234375 131.46875 -191.234375 C 107.695312 -191.234375 90.976562 -184.503906 81.3125 -171.046875 C 71.644531 -157.585938 66.8125 -138.0625 66.8125 -112.46875 L 66.8125 0 L 34.28125 0 L 34.28125 -214.734375 L 60.546875 -214.734375 L 65.4375 -183.78125 L 67.203125 -183.78125 C 71.773438 -191.351562 77.585938 -197.71875 84.640625 -202.875 C 91.691406 -208.039062 99.59375 -211.960938 108.34375 -214.640625 C 117.101562 -217.316406 126.3125 -218.65625 135.96875 -218.65625 Z M 135.96875 -218.65625 "/></g></g><g transform="translate(1172.815357, 428.537696)"><g><path d="M 67.015625 0 L 34.28125 0 L 34.28125 -304.875 L 67.015625 -304.875 Z M 67.015625 0 "/></g></g></g><g fill="#333333" fill-opacity="1"><g transform="translate(1274.112217, 428.537696)"><g><path d="M 0.390625 -214.734375 L 35.265625 -214.734375 L 82.6875 -90.125 C 85.425781 -82.8125 87.96875 -75.789062 90.3125 -69.0625 C 92.664062 -62.332031 94.757812 -55.898438 96.59375 -49.765625 C 98.425781 -43.628906 99.863281 -37.6875 100.90625 -31.9375 L 102.28125 -31.9375 C 104.101562 -38.46875 106.710938 -47.054688 110.109375 -57.703125 C 113.503906 -68.347656 117.160156 -79.222656 121.078125 -90.328125 L 165.953125 -214.734375 L 201.03125 -214.734375 L 107.5625 31.546875 C 102.601562 44.734375 96.820312 56.222656 90.21875 66.015625 C 83.625 75.816406 75.625 83.363281 66.21875 88.65625 C 56.820312 93.945312 45.457031 96.59375 32.125 96.59375 C 25.988281 96.59375 20.566406 96.234375 15.859375 95.515625 C 11.160156 94.796875 7.113281 93.976562 3.71875 93.0625 L 3.71875 67.015625 C 6.59375 67.660156 10.085938 68.242188 14.203125 68.765625 C 18.316406 69.296875 22.59375 69.5625 27.03125 69.5625 C 35.132812 69.5625 42.15625 68.023438 48.09375 64.953125 C 54.039062 61.878906 59.171875 57.40625 63.484375 51.53125 C 67.796875 45.65625 71.519531 38.664062 74.65625 30.5625 L 86.40625 0.390625 Z M 0.390625 -214.734375 "/></g></g></g></g></g><g clip-path="url(#d744c8e174)"><path fill="#333333" d="M 197.246094 930.917969 C 193.578125 927.804688 184.664062 921.570312 178.820312 916.28125 C 172.984375 910.988281 170.210938 906.644531 168.410156 903.835938 C 166.597656 901.039062 165.753906 899.777344 164.308594 899.144531 C 162.867188 898.511719 160.816406 898.511719 157.871094 898.511719 C 154.917969 898.511719 151.0625 898.511719 150.523438 899.28125 C 149.980469 900.050781 152.753906 901.597656 155.824219 904.613281 C 158.894531 907.628906 162.261719 912.121094 166.117188 916.496094 C 169.972656 920.882812 174.3125 925.160156 178.101562 928.066406 C 180.152344 929.636719 182.050781 930.808594 183.863281 931.675781 L 177.890625 931.675781 C 176.679688 929.980469 173.378906 927.382812 170.605469 925.292969 C 167.359375 922.839844 164.828125 921.09375 162.65625 918.707031 C 160.492188 916.328125 158.691406 913.308594 157.117188 911.621094 C 155.554688 909.9375 154.226562 909.59375 153.144531 909.839844 C 152.0625 910.082031 151.214844 910.921875 151.882812 912.960938 C 152.542969 914.992188 154.707031 918.214844 157.601562 921.09375 C 160.492188 923.964844 164.105469 926.488281 166.75 928.585938 C 168.257812 929.773438 169.453125 930.832031 170.625 931.675781 L 165.660156 931.675781 C 163.058594 929.394531 155.769531 924.996094 150.746094 920.664062 C 145.625 916.253906 142.855469 911.902344 141.234375 908.578125 C 139.601562 905.246094 139.121094 902.929688 137.554688 901.703125 C 135.992188 900.472656 133.34375 900.335938 129.789062 900.125 C 126.238281 899.914062 121.78125 899.628906 121.839844 900.859375 C 121.902344 902.089844 126.476562 904.824219 129.96875 908.253906 C 133.460938 911.691406 135.871094 915.832031 138.402344 919.304688 C 140.929688 922.773438 143.578125 925.582031 146.410156 927.921875 C 148.183594 929.394531 150.035156 930.683594 151.863281 931.675781 L 145.78125 931.675781 C 144.640625 930.289062 142.183594 928.28125 139.800781 925.996094 C 136.671875 922.984375 133.660156 919.476562 131.433594 916.847656 C 129.203125 914.222656 127.757812 912.46875 126.253906 911.417969 C 124.746094 910.359375 123.183594 910.015625 122.34375 910.574219 C 121.5 911.132812 121.378906 912.605469 122.820312 914.675781 C 124.265625 916.746094 127.277344 919.410156 129.8125 921.753906 C 132.332031 924.109375 134.378906 926.140625 136.1875 928.132812 C 137.351562 929.40625 138.40625 930.667969 139.589844 931.675781 L 135.871094 931.675781 C 134.0625 929.667969 129.710938 926.207031 125.882812 922.976562 C 121.730469 919.476562 118.175781 916.246094 115.464844 912.882812 C 112.757812 909.515625 110.886719 906.011719 109.171875 903.753906 C 107.460938 901.492188 105.890625 900.472656 101.890625 900.210938 C 97.882812 899.945312 91.4375 900.4375 90.234375 901.265625 C 89.027344 902.089844 93.070312 903.246094 96.648438 906.75 C 100.230469 910.257812 103.363281 916.117188 107.25 920.546875 C 111.132812 924.984375 115.765625 927.992188 119.378906 930.003906 C 120.5625 930.664062 121.625 931.214844 122.613281 931.675781 L 115.101562 931.675781 C 113.753906 929.980469 110.65625 927.546875 108.035156 925.574219 C 104.78125 923.121094 102.253906 921.367188 100.085938 918.980469 C 97.914062 916.601562 96.113281 913.585938 94.546875 911.902344 C 92.984375 910.21875 91.65625 909.871094 90.574219 910.113281 C 89.484375 910.359375 88.644531 911.199219 89.304688 913.238281 C 89.972656 915.269531 92.136719 918.496094 95.027344 921.367188 C 97.914062 924.242188 101.53125 926.769531 104.179688 928.867188 C 105.519531 929.925781 106.609375 930.878906 107.671875 931.675781 L 103.15625 931.675781 C 102.914062 931.445312 102.628906 931.1875 102.304688 930.917969 C 98.628906 927.804688 89.722656 921.570312 83.878906 916.28125 C 78.035156 910.988281 75.269531 906.644531 73.460938 903.835938 C 71.65625 901.039062 70.8125 899.777344 69.367188 899.144531 C 67.917969 898.511719 65.871094 898.511719 62.921875 898.511719 C 59.96875 898.511719 56.121094 898.511719 55.578125 899.28125 C 55.039062 900.050781 57.804688 901.597656 60.875 904.613281 C 63.945312 907.628906 67.320312 912.121094 71.175781 916.496094 C 75.023438 920.882812 79.363281 925.160156 83.15625 928.066406 C 85.210938 929.636719 87.105469 930.808594 88.921875 931.675781 L 82.246094 931.675781 C 81.027344 930.308594 78.734375 928.414062 76.503906 926.273438 C 73.375 923.261719 70.363281 919.75 68.136719 917.121094 C 65.90625 914.492188 64.460938 912.742188 62.953125 911.691406 C 61.449219 910.640625 59.882812 910.285156 59.046875 910.851562 C 58.199219 911.410156 58.082031 912.882812 59.523438 914.953125 C 60.96875 917.015625 63.976562 919.679688 66.507812 922.03125 C 69.035156 924.378906 71.089844 926.417969 72.890625 928.40625 C 73.949219 929.570312 74.917969 930.722656 75.976562 931.675781 L 73.054688 931.675781 C 70.457031 929.394531 63.167969 924.996094 58.140625 920.664062 C 53.023438 916.253906 50.25 911.902344 48.628906 908.578125 C 47.003906 905.246094 46.519531 902.929688 44.949219 901.703125 C 43.386719 900.472656 40.738281 900.335938 37.1875 900.125 C 33.632812 899.914062 29.175781 899.628906 29.234375 900.859375 C 29.296875 902.089844 33.871094 904.824219 37.363281 908.253906 C 40.855469 911.691406 43.265625 915.832031 45.796875 919.304688 C 48.324219 922.773438 50.972656 925.582031 53.804688 927.921875 C 56.324219 930.003906 58.988281 931.726562 61.535156 932.746094 L 61.535156 940.035156 C 58.988281 941.046875 56.324219 942.769531 53.804688 944.859375 C 50.972656 947.199219 48.324219 950.007812 45.796875 953.476562 C 43.265625 956.949219 40.855469 961.089844 37.363281 964.519531 C 33.871094 967.957031 29.296875 970.691406 29.234375 971.914062 C 29.175781 973.144531 33.632812 972.867188 37.1875 972.65625 C 40.738281 972.449219 43.386719 972.304688 44.949219 971.074219 C 46.519531 969.851562 47.003906 967.539062 48.628906 964.203125 C 50.25 960.878906 53.023438 956.527344 58.140625 952.117188 C 63.167969 947.785156 70.457031 943.386719 73.054688 941.113281 L 75.976562 941.113281 C 74.917969 942.058594 73.949219 943.210938 72.890625 944.375 C 71.089844 946.367188 69.035156 948.398438 66.507812 950.75 C 63.976562 953.097656 60.96875 955.765625 59.523438 957.828125 C 58.082031 959.898438 58.199219 961.371094 59.046875 961.929688 C 59.882812 962.496094 61.449219 962.140625 62.953125 961.089844 C 64.460938 960.039062 65.90625 958.289062 68.136719 955.660156 C 70.363281 953.03125 73.375 949.519531 76.503906 946.511719 C 78.734375 944.367188 81.027344 942.472656 82.246094 941.113281 L 88.914062 941.113281 C 87.101562 941.972656 85.203125 943.144531 83.15625 944.714844 C 79.363281 947.621094 75.023438 951.898438 71.175781 956.285156 C 67.320312 960.660156 63.945312 965.152344 60.875 968.167969 C 57.804688 971.183594 55.039062 972.722656 55.578125 973.5 C 56.121094 974.269531 59.96875 974.269531 62.921875 974.269531 C 65.871094 974.269531 67.917969 974.269531 69.367188 973.636719 C 70.8125 973.007812 71.65625 971.742188 73.460938 968.9375 C 75.269531 966.136719 78.035156 961.785156 83.878906 956.5 C 89.722656 951.210938 98.628906 944.976562 102.304688 941.863281 C 102.621094 941.585938 102.90625 941.335938 103.148438 941.113281 L 107.667969 941.113281 C 106.609375 941.902344 105.519531 942.855469 104.179688 943.914062 C 101.53125 946.011719 97.914062 948.535156 95.027344 951.414062 C 92.136719 954.285156 89.972656 957.511719 89.304688 959.542969 C 88.644531 961.574219 89.484375 962.417969 90.574219 962.667969 C 91.65625 962.910156 92.984375 962.5625 94.546875 960.878906 C 96.113281 959.195312 97.914062 956.179688 100.085938 953.792969 C 102.253906 951.414062 104.78125 949.660156 108.035156 947.207031 C 110.65625 945.234375 113.746094 942.804688 115.101562 941.113281 L 122.609375 941.113281 C 121.625 941.574219 120.554688 942.121094 119.378906 942.769531 C 115.765625 944.78125 111.132812 947.796875 107.25 952.234375 C 103.363281 956.671875 100.230469 962.523438 96.648438 966.027344 C 93.070312 969.535156 89.027344 970.691406 90.234375 971.515625 C 91.4375 972.34375 97.882812 972.828125 101.890625 972.566406 C 105.890625 972.304688 107.460938 971.289062 109.171875 969.03125 C 110.886719 966.769531 112.757812 963.257812 115.464844 959.894531 C 118.175781 956.527344 121.730469 953.304688 125.882812 949.804688 C 129.710938 946.574219 134.054688 943.113281 135.863281 941.113281 L 139.582031 941.113281 C 138.40625 942.113281 137.34375 943.375 136.1875 944.648438 C 134.378906 946.640625 132.332031 948.671875 129.8125 951.027344 C 127.277344 953.371094 124.265625 956.035156 122.820312 958.105469 C 121.378906 960.175781 121.5 961.648438 122.34375 962.207031 C 123.183594 962.765625 124.746094 962.417969 126.253906 961.363281 C 127.757812 960.3125 129.203125 958.558594 131.433594 955.929688 C 133.660156 953.304688 136.671875 949.796875 139.800781 946.785156 C 142.183594 944.5 144.640625 942.492188 145.777344 941.113281 L 151.855469 941.113281 C 150.027344 942.097656 148.179688 943.386719 146.410156 944.859375 C 143.578125 947.199219 140.929688 950.007812 138.402344 953.476562 C 135.871094 956.949219 133.460938 961.089844 129.96875 964.519531 C 126.476562 967.957031 121.902344 970.691406 121.839844 971.914062 C 121.78125 973.144531 126.238281 972.867188 129.789062 972.65625 C 133.34375 972.449219 135.992188 972.304688 137.554688 971.074219 C 139.121094 969.851562 139.601562 967.539062 141.234375 964.203125 C 142.855469 960.878906 145.625 956.527344 150.746094 952.117188 C 155.769531 947.785156 163.058594 943.386719 165.65625 941.113281 L 170.621094 941.113281 C 169.445312 941.949219 168.257812 943.007812 166.75 944.191406 C 164.105469 946.292969 160.492188 948.816406 157.601562 951.691406 C 154.707031 954.570312 152.542969 957.789062 151.882812 959.820312 C 151.214844 961.859375 152.0625 962.699219 153.144531 962.941406 C 154.226562 963.1875 155.554688 962.835938 157.117188 961.15625 C 158.691406 959.472656 160.492188 956.457031 162.65625 954.074219 C 164.828125 951.691406 167.359375 949.933594 170.605469 947.488281 C 173.378906 945.398438 176.675781 942.804688 177.890625 941.113281 L 183.859375 941.113281 C 182.050781 941.972656 180.152344 943.144531 178.101562 944.714844 C 174.3125 947.621094 169.972656 951.898438 166.117188 956.285156 C 162.261719 960.660156 158.894531 965.152344 155.824219 968.167969 C 152.753906 971.183594 149.980469 972.722656 150.523438 973.5 C 151.0625 974.269531 154.917969 974.269531 157.871094 974.269531 C 160.816406 974.269531 162.867188 974.269531 164.308594 973.636719 C 165.753906 973.007812 166.597656 971.742188 168.410156 968.9375 C 170.210938 966.136719 172.984375 961.785156 178.820312 956.5 C 184.664062 951.210938 193.578125 944.976562 197.246094 941.863281 C 197.570312 941.585938 197.855469 941.335938 198.097656 941.113281 L 655.691406 941.113281 C 655.414062 941.527344 655.097656 941.921875 654.734375 942.289062 L 643.214844 954.101562 C 640.917969 956.457031 641.351562 959.445312 642.765625 960.972656 C 644.34375 962.667969 647.242188 962.71875 650.9375 961.5625 L 725.796875 938.101562 C 728.933594 937.117188 728.933594 935.507812 725.796875 934.527344 L 650.9375 911.066406 C 641.902344 908.226562 640.144531 915.625 642.730469 918.277344 L 654.734375 930.589844 C 655.070312 930.925781 655.363281 931.285156 655.625 931.675781 L 198.097656 931.675781 C 197.855469 931.445312 197.570312 931.1875 197.246094 930.917969 " fill-opacity="1" fill-rule="evenodd"/></g></svg>